<svg xmlns="http://www.w3.org/2000/svg" width="15" height="16" viewBox="0 0 15 16" fill="none">
<path fill-rule="evenodd" clip-rule="evenodd" d="M0.768768 2.56159C0.761504 1.73319 1.42716 1.05576 2.25556 1.04849L9.25529 0.98711C10.0837 0.979846 10.7611 1.6455 10.7684 2.4739L10.7969 5.72375L10.2813 5.72828C10.1863 5.02267 9.72014 4.4127 9.04831 4.14129C8.29827 3.83829 7.43957 4.01694 6.87261 4.59392L4.89023 6.61138C4.11606 7.39925 4.12716 8.66553 4.91503 9.4397L6.93249 11.4221C7.50948 11.989 8.37118 12.1526 9.11579 11.8366C9.78277 11.5534 10.2381 10.9353 10.3207 10.2281L10.8363 10.2236L10.8648 13.4735C10.8721 14.3018 10.2065 14.9793 9.37805 14.9866L2.37832 15.048C1.54993 15.0552 0.87249 14.3895 0.865226 13.5612L0.768768 2.56159ZM8.58009 5.30031C8.86136 5.41393 9.04648 5.6858 9.04914 5.98913L9.05791 6.98909L13.8077 6.94744C14.36 6.9426 14.8116 7.38637 14.8165 7.93863C14.8213 8.4909 14.3775 8.94252 13.8253 8.94736L9.07545 8.98902L9.08422 9.98898C9.08688 10.2923 8.90655 10.5674 8.62732 10.6859C8.3481 10.8045 8.02496 10.7431 7.80859 10.5305L5.79113 8.54813C5.49568 8.25782 5.49152 7.78296 5.78183 7.48751L7.76421 5.47005C7.97682 5.25367 8.29884 5.18669 8.58009 5.30031Z" fill="white"/>
</svg>